<svg width="30" height="26" viewBox="0 0 30 26" fill="none" xmlns="http://www.w3.org/2000/svg">
<g filter="url(#filter0_d)">
<path d="M22.2932 4.41071C21.7947 5.13988 21.1921 5.76116 20.4852 6.27455C20.4927 6.37872 20.4964 6.53497 20.4964 6.7433C20.4964 7.71057 20.355 8.67783 20.0723 9.64509C19.7895 10.6049 19.358 11.5275 18.7776 12.4129C18.2047 13.2984 17.5202 14.0833 16.7241 14.7679C15.9279 15.4449 14.9681 15.9881 13.8446 16.3973C12.7211 16.7991 11.5194 17 10.2397 17C8.22331 17 6.37807 16.4606 4.70396 15.3817C4.96438 15.4115 5.25456 15.4263 5.5745 15.4263C7.2486 15.4263 8.74042 14.9129 10.0499 13.8862C9.26869 13.8713 8.56929 13.6332 7.95173 13.1719C7.33417 12.7031 6.91006 12.1079 6.67941 11.3862C6.92494 11.4234 7.15188 11.442 7.36021 11.442C7.68015 11.442 7.99637 11.401 8.30887 11.3192C7.47554 11.1481 6.78358 10.7351 6.23298 10.0804C5.68983 9.41815 5.41825 8.65179 5.41825 7.78125V7.73661C5.9242 8.01935 6.46735 8.17188 7.04771 8.1942C6.55664 7.86682 6.16602 7.43899 5.87584 6.91071C5.58566 6.38244 5.44057 5.80952 5.44057 5.19196C5.44057 4.5372 5.60426 3.9308 5.93164 3.37277C6.83194 4.4814 7.92569 5.37054 9.21289 6.04018C10.5075 6.70238 11.8915 7.07068 13.3647 7.14509C13.3052 6.86235 13.2754 6.58705 13.2754 6.3192C13.2754 5.32217 13.6251 4.47396 14.3245 3.77455C15.0313 3.06771 15.8833 2.71429 16.8803 2.71429C17.922 2.71429 18.7999 3.09375 19.5142 3.85268C20.3252 3.69643 21.0879 3.40625 21.8022 2.98214C21.5269 3.8378 20.9986 4.5 20.2174 4.96875C20.9093 4.89435 21.6013 4.70833 22.2932 4.41071Z" fill="white"/>
<path d="M22.2932 4.41071L23.1188 4.9751L25.0634 2.13067L21.8981 3.49208L22.2932 4.41071ZM20.4852 6.27455L19.8975 5.46545L19.4482 5.79183L19.4878 6.34579L20.4852 6.27455ZM20.0723 9.64509L21.0315 9.92766L21.0321 9.92566L20.0723 9.64509ZM18.7776 12.4129L17.9413 11.8647L17.9381 11.8697L18.7776 12.4129ZM16.7241 14.7679L17.3719 15.5296L17.376 15.5261L16.7241 14.7679ZM13.8446 16.3973L14.1813 17.3389L14.1868 17.3369L13.8446 16.3973ZM4.70396 15.3817L4.81751 14.3882L4.16226 16.2223L4.70396 15.3817ZM10.0499 13.8862L10.667 14.6731L12.8775 12.9398L10.069 12.8863L10.0499 13.8862ZM7.95173 13.1719L7.34712 13.9684L7.35328 13.973L7.95173 13.1719ZM6.67941 11.3862L6.82921 10.3974L5.23648 10.1561L5.72687 11.6906L6.67941 11.3862ZM8.30887 11.3192L8.56223 12.2866L8.51003 10.3396L8.30887 11.3192ZM6.23298 10.0804L5.45974 10.7146L5.46762 10.724L6.23298 10.0804ZM5.41825 7.73661L5.90607 6.86366L4.41825 6.03223V7.73661H5.41825ZM7.04771 8.1942L7.00928 9.19346L10.5539 9.32979L7.60241 7.36215L7.04771 8.1942ZM5.87584 6.91071L6.75231 6.42927L5.87584 6.91071ZM5.93164 3.37277L6.70791 2.74237L5.79883 1.62292L5.06912 2.86675L5.93164 3.37277ZM9.21289 6.04018L8.75137 6.92733L8.75751 6.93047L9.21289 6.04018ZM13.3647 7.14509L13.3142 8.14382L14.6106 8.20929L14.3432 6.93908L13.3647 7.14509ZM14.3245 3.77455L13.6174 3.06745L13.6174 3.06745L14.3245 3.77455ZM19.5142 3.85268L18.786 4.53804L19.1631 4.93871L19.7034 4.83462L19.5142 3.85268ZM21.8022 2.98214L22.7541 3.28842L23.5633 0.773509L21.2916 2.12229L21.8022 2.98214ZM20.2174 4.96875L19.7029 4.11126L20.3243 5.96302L20.2174 4.96875ZM21.4677 3.84633C21.0332 4.48197 20.5106 5.02016 19.8975 5.46545L21.0729 7.08366C21.8735 6.50217 22.5563 5.79779 23.1188 4.9751L21.4677 3.84633ZM19.4878 6.34579C19.4926 6.41311 19.4964 6.54031 19.4964 6.7433H21.4964C21.4964 6.52963 21.4927 6.34434 21.4827 6.20331L19.4878 6.34579ZM19.4964 6.7433C19.4964 7.6117 19.3696 8.48457 19.1124 9.36452L21.0321 9.92566C21.3404 8.87109 21.4964 7.80943 21.4964 6.7433H19.4964ZM19.113 9.36252C18.8596 10.2229 18.471 11.0566 17.9413 11.8648L19.614 12.9611C20.245 11.9985 20.7195 10.9869 21.0315 9.92766L19.113 9.36252ZM17.9381 11.8697C17.4168 12.6752 16.7954 13.3877 16.0721 14.0096L17.376 15.5261C18.245 14.779 18.9926 13.9215 19.6172 12.9562L17.9381 11.8697ZM16.0762 14.0061C15.3826 14.596 14.5301 15.0834 13.5023 15.4577L14.1868 17.3369C15.4061 16.8928 16.4732 16.2939 17.3719 15.5296L16.0762 14.0061ZM13.5079 15.4557C12.5 15.8161 11.413 16 10.2397 16V18C11.6258 18 12.9421 17.7821 14.1813 17.3389L13.5079 15.4557ZM10.2397 16C8.41291 16 6.75615 15.5146 5.24566 14.5411L4.16226 16.2223C5.99999 17.4066 8.03371 18 10.2397 18V16ZM4.59042 16.3752C4.89566 16.4101 5.22455 16.4263 5.5745 16.4263V14.4263C5.28457 14.4263 5.03309 14.4128 4.81751 14.3882L4.59042 16.3752ZM5.5745 16.4263C7.47086 16.4263 9.18025 15.8388 10.667 14.6731L9.43291 13.0992C8.30059 13.9871 7.02635 14.4263 5.5745 14.4263V16.4263ZM10.069 12.8863C9.49383 12.8754 8.99769 12.705 8.55018 12.3707L7.35328 13.973C8.14088 14.5614 9.04356 14.8672 10.0309 14.886L10.069 12.8863ZM8.55633 12.3753C8.09853 12.0279 7.79845 11.6027 7.63195 11.0817L5.72687 11.6906C6.02168 12.613 6.56981 13.3784 7.34713 13.9684L8.55633 12.3753ZM6.5296 12.3749C6.81562 12.4182 7.0933 12.442 7.36021 12.442V10.442C7.21046 10.442 7.03427 10.4285 6.82921 10.3974L6.5296 12.3749ZM7.36021 12.442C7.76648 12.442 8.16783 12.3899 8.56223 12.2866L8.05551 10.3518C7.82492 10.4122 7.59382 10.442 7.36021 10.442V12.442ZM8.51003 10.3396C7.89856 10.2141 7.40493 9.92027 6.99834 9.43676L5.46762 10.724C6.16222 11.55 7.05252 12.0821 8.10771 12.2988L8.51003 10.3396ZM7.00616 9.44617C6.61228 8.96596 6.41825 8.42467 6.41825 7.78125H4.41825C4.41825 8.8789 4.76737 9.87035 5.4598 10.7145L7.00616 9.44617ZM6.41825 7.78125V7.73661H4.41825V7.78125H6.41825ZM4.93043 8.60955C5.57441 8.96942 6.2716 9.16508 7.00928 9.19346L7.08614 7.19494C6.66311 7.17866 6.27399 7.06927 5.90607 6.86366L4.93043 8.60955ZM7.60241 7.36215C7.24817 7.12599 6.96672 6.8196 6.75231 6.42927L4.99936 7.39216C5.36531 8.05838 5.86511 8.60764 6.49301 9.02625L7.60241 7.36215ZM6.75231 6.42927C6.54523 6.05227 6.44057 5.64552 6.44057 5.19196H4.44057C4.44057 5.97352 4.62609 6.71262 4.99936 7.39216L6.75231 6.42927ZM6.44057 5.19196C6.44057 4.71285 6.55794 4.28145 6.79417 3.87878L5.06912 2.86675C4.65058 3.58016 4.44057 4.36156 4.44057 5.19196H6.44057ZM5.15537 4.00316C6.14332 5.21974 7.34479 6.19556 8.75138 6.92731L9.6744 5.15305C8.50659 4.54551 7.52055 3.74306 6.70791 2.74237L5.15537 4.00316ZM8.75751 6.93047C10.1798 7.65797 11.702 8.06239 13.3142 8.14382L13.4151 6.14636C12.0809 6.07898 10.8353 5.74679 9.66827 5.14988L8.75751 6.93047ZM14.3432 6.93908C14.2969 6.71881 14.2754 6.51264 14.2754 6.3192H12.2754C12.2754 6.66146 12.3134 7.00589 12.3861 7.3511L14.3432 6.93908ZM14.2754 6.3192C14.2754 5.585 14.5214 4.99185 15.0316 4.48166L13.6174 3.06745C12.7288 3.95607 12.2754 5.05934 12.2754 6.3192H14.2754ZM15.0316 4.48166C15.5515 3.9618 16.1493 3.71429 16.8803 3.71429V1.71429C15.6173 1.71429 14.5112 2.17362 13.6174 3.06745L15.0316 4.48166ZM16.8803 3.71429C17.6461 3.71429 18.2606 3.97978 18.786 4.53804L20.2424 3.16731C19.3393 2.20772 18.1979 1.71429 16.8803 1.71429V3.71429ZM19.7034 4.83462C20.6285 4.6564 21.4997 4.3247 22.3127 3.842L21.2916 2.12229C20.676 2.4878 20.022 2.73646 19.325 2.87074L19.7034 4.83462ZM20.8502 2.67587C20.6503 3.29742 20.2794 3.76531 19.7029 4.11126L20.7319 5.82624C21.7178 5.23469 22.4035 4.37818 22.7541 3.28842L20.8502 2.67587ZM20.3243 5.96302C21.1234 5.87709 21.9122 5.66319 22.6884 5.32935L21.8981 3.49208C21.2904 3.75347 20.6953 3.9116 20.1104 3.97448L20.3243 5.96302Z" fill="black"/>
</g>
<defs>
<filter id="filter0_d" x="0.162231" y="0.773499" width="28.9012" height="25.2265" filterUnits="userSpaceOnUse" color-interpolation-filters="sRGB">
<feFlood flood-opacity="0" result="BackgroundImageFix"/>
<feColorMatrix in="SourceAlpha" type="matrix" values="0 0 0 0 0 0 0 0 0 0 0 0 0 0 0 0 0 0 127 0"/>
<feOffset dy="4"/>
<feGaussianBlur stdDeviation="2"/>
<feColorMatrix type="matrix" values="0 0 0 0 0 0 0 0 0 0 0 0 0 0 0 0 0 0 0.25 0"/>
<feBlend mode="normal" in2="BackgroundImageFix" result="effect1_dropShadow"/>
<feBlend mode="normal" in="SourceGraphic" in2="effect1_dropShadow" result="shape"/>
</filter>
</defs>
</svg>
